<svg width="30" height="24" viewBox="0 0 30 24" fill="none" xmlns="http://www.w3.org/2000/svg">
<path fill-rule="evenodd" clip-rule="evenodd" d="M7.81466 12.7715C8.29961 12.3715 8.29961 11.6285 7.81466 11.2285L0 4.78312V1.13066C0 0.285189 0.984046 -0.178756 1.63629 0.359202L14.8147 11.2285C15.2996 11.6285 15.2996 12.3715 14.8147 12.7715L1.63629 23.6408C0.984047 24.1788 0 23.7148 0 22.8693V19.2169L7.81466 12.7715Z" fill="white"/>
<path fill-rule="evenodd" clip-rule="evenodd" d="M22.5647 12.7715C23.0496 12.3715 23.0496 11.6285 22.5647 11.2285L14.75 4.78312V1.13066C14.75 0.285189 15.734 -0.178756 16.3863 0.359202L29.5647 11.2285C30.0496 11.6285 30.0496 12.3715 29.5647 12.7715L16.3863 23.6408C15.734 24.1788 14.75 23.7148 14.75 22.8693V19.2169L22.5647 12.7715Z" fill="white"/>
</svg>
