<svg width="443" height="310" viewBox="0 0 443 310" fill="none" xmlns="http://www.w3.org/2000/svg">
<path fill-rule="evenodd" clip-rule="evenodd" d="M47 25H396C405.593 25 413.751 31.1394 416.761 39.7033L221.504 159.609L26.2404 39.6992C29.2513 31.1374 37.4089 25 47 25ZM443 263L443 67.4489L443 47C443 21.0426 421.957 0 396 0H47C21.0426 0 0 21.0426 0 47V263C0 288.957 21.0426 310 47 310H396C421.957 310 443 288.957 443 263ZM231.012 197.629L418 82.8012V263C418 275.15 408.15 285 396 285H47C34.8497 285 25 275.15 25 263V82.8143L211 197.036V198H231V197.61L231.012 197.629Z" fill="black"/>
</svg>
